<svg width="48" height="45" viewBox="0 0 48 45" fill="none" xmlns="http://www.w3.org/2000/svg">
<path d="M45.36 30.8459C42.08 30.8459 38.9067 30.3476 35.9467 29.4506C35.0133 29.1516 33.9733 29.3759 33.2533 30.0486L29.0667 34.957C21.52 31.5934 14.4533 25.2398 10.6933 17.9395L15.8933 13.8034C16.6133 13.1058 16.8267 12.134 16.5333 11.262C15.5467 8.49632 15.04 5.53133 15.04 2.46667C15.04 1.12122 13.84 0 12.4 0H3.17333C1.73333 0 0 0.597982 0 2.46667C0 25.6136 20.6133 44.8486 45.36 44.8486C47.2533 44.8486 48 43.2789 48 41.9086V33.3126C48 31.9671 46.8 30.8459 45.36 30.8459Z" fill="#D30909"/>
</svg>
